{"title":"Prom.Night.2008.720p.BluRay.DTS.x264-DNL","uid":6496453,"size":4676800670,"categoryP":"video","categoryS":"hd___movies","magnet":"?xt=urn:btih:0b650b5400634dbf81e55d09e973697f5c26682c&amp;dn=Prom.Night.2008.720p.BluRay.DTS.x264-DNL&amp;tr=udp%3A%2F%2Ftracker.openbittorrent.com%3A80&amp;tr=udp%3A%2F%2Fopen.demonii.com%3A1337&amp;tr=udp%3A%2F%2Ftracker.coppersurfer.tk%3A6969&amp;tr=udp%3A%2F%2Fexodus.desync.com%3A6969","seeders":0,"leechers":1,"uploader":"TPBAgri","files":-1,"time":1309048819,"description":"Prom.Night.2008.720p.BluRay.DTS.x264-DNL\n\n\nSize:\t4.36 GB\n\nGenres:\tHorror , Mystery , Thriller\n\nActors:\tBrittany Snow , Scott Porter , Jessica Stroup , Dana Davis , Collins Pennie\n        Kelly Blatz , James Ransone , Brianne Davis , Kellan Lutz , Mary Mara , \n        Ming-Na , Johnathon Schaech , Idris Elba , Jessalyn Gilsig , Linden Ashby\n\nDir:\tNelson McCormick\n\nRuntime:88 min\n\nYear:\t2008\n\nPlot:\tDonnas senior prom is supposed to be the best night of her life| one of \n        magic| beauty| and love. Surrounded by her best friends| she should be safe\n        from the horrors of her past. But when the night turns from magic to murder \n        there is only one man who could be responsible| the man she thought was gone \n        forever. Now| Donna and her friends must find a way to escape the sadistic \n        rampage of an obsessed killer| and survive their Prom Night. \n\n\n\n\n\nFormat                           : Matroska\nFile size                        : 4.36 GiB\nDuration                         : 1h 29mn\nOverall bit rate                 : 6 992 Kbps\n\n\nVideo\nID                               : 1\nFormat                           : AVC\nFormat/Info                      : Advanced Video Codec\nFormat profile                   : &lt;a class=&quot;__cf_email__&quot; href=&quot;/cdn-cgi/l/email-protection&quot; data-cfemail=&quot;93dbfaf4fbd3dfa7bda2&quot;&gt;[email&amp;#160;protected]&lt;/a&gt;&lt;script cf-hash='f9e31' type=&quot;text/javascript&quot;&gt;\n/* &lt;![CDATA[ */!function(){try{var t=&quot;currentScript&quot;in document?document.currentScript:function(){for(var t=document.getElementsByTagName(&quot;script&quot;),e=t.length;e--;)if(t[e].getAttribute(&quot;cf-hash&quot;))return t[e]}();if(t&amp;&amp;t.previousSibling){var e,r,n,i,c=t.previousSibling,a=c.getAttribute(&quot;data-cfemail&quot;);if(a){for(e=&quot;&quot;,r=parseInt(a.substr(0,2),16),n=2;a.length-n;n+=2)i=parseInt(a.substr(n,2),16)^r,e+=String.fromCharCode(i);e=document.createTextNode(e),c.parentNode.replaceChild(e,c)}}}catch(u){}}();/* ]]&gt; */&lt;/script&gt;\nFormat settings, CABAC           : Yes\nFormat settings, ReFrames        : 11 frames\nFormat settings, GOP             : M=4, N=48\nCodec ID                         : V_MPEG4/ISO/AVC\nDuration                         : 1h 29mn\nBit rate mode                    : Variable\nBit rate                         : 5 484 Kbps\nMaximum bit rate                 : 25.0 Mbps\nWidth                            : 1 280 pixels\nHeight                           : 534 pixels\nDisplay aspect ratio             : 2.35:1\nFrame rate                       : 23.976 fps\nColor space                      : YUV\nChroma subsampling               : 4:2:0\nBit depth                        : 8 bits\nScan type                        : Progressive\nBits/(Pixel*Frame)               : 0.335\nStream size                      : 3.33 GiB (76%)\nWriting library                  : x264 core 114 r1924 08d04a4\n\nAudio\nID                               : 2\nFormat                           : DTS\nFormat/Info                      : Digital Theater Systems\nCodec ID                         : A_DTS\nDuration                         : 1h 29mn\nBit rate mode                    : Constant\nBit rate                         : 1 510 Kbps\nChannel(s)                       : 6 channels\nChannel positions                : Front: L C R, Side: L R, LFE\nSampling rate                    : 48.0 KHz\nBit depth                        : 24 bits\nCompression mode                 : Lossy\nStream size                      : 963 MiB (22%)\n","torrent":{"xt":"urn:btih:0b650b5400634dbf81e55d09e973697f5c26682c","amp;dn":"Prom.Night.2008.720p.BluRay.DTS.x264-DNL","amp;tr":["udp%3A%2F%2Ftracker.openbittorrent.com%3A80","udp%3A%2F%2Fopen.demonii.com%3A1337","udp%3A%2F%2Ftracker.coppersurfer.tk%3A6969","udp%3A%2F%2Fexodus.desync.com%3A6969"],"infoHash":"0b650b5400634dbf81e55d09e973697f5c26682c","infoHashBuffer":{"type":"Buffer","data":[11,101,11,84,0,99,77,191,129,229,93,9,233,115,105,127,92,38,104,44]},"announce":[],"urlList":[]}}